# xmcd
#
# Track frame offsets:
#	150
#	17450
#	28080
#	40740
#	53575
#	66470
#	79527
#	93620
#	113112
#	134447
#
# Disc length: 1975 seconds
#
# Revision: 3
# Processed by: cddbd v1.5.1PL0 Copyright (c) Steve Scherf et al.
# Submitted via: MusicWizard 6.0.1
#
DISCID=7c07b50a
DTITLE=Dr. Hook - Dr. Hook And The Medicine Show Revisited
DYEAR=1900
DGENRE=
TTITLE0=Sylvia's Mother
TTITLE1=Acapulco Goldie
TTITLE2=Freakin' At The Freaker's Ball
TTITLE3=Makin' It Natural
TTITLE4=Penicillin Penny
TTITLE5=Cover Of The Rolling Stone
TTITLE6=Get My Rocks Off
TTITLE7=Carry Me, Carrie
TTITLE8=Queen Of The Silver Dollar
TTITLE9=Roland The Roadie And Gertrude The Groupie
EXTD=
EXTT0=
EXTT1=
EXTT2=
EXTT3=
EXTT4=
EXTT5=
EXTT6=
EXTT7=
EXTT8=
EXTT9=
PLAYORDER=
